<svg xmlns="http://www.w3.org/2000/svg" viewBox="0 0 32 32">
  <defs>
    <linearGradient id="bg" x1="0" y1="0" x2="1" y2="1">
      <stop offset="0%" stop-color="#6366f1"/>
      <stop offset="100%" stop-color="#4f46e5"/>
    </linearGradient>
  </defs>
  <rect width="32" height="32" rx="7" fill="url(#bg)"/>
  <path d="M7 10.5h4v11H7zM12.5 10.5h4v11h-4z" fill="#fff" opacity=".35" rx="1"/>
  <path d="M19 10.5h6a1 1 0 0 1 1 1v2a1 1 0 0 1-1 1h-6v-4z" fill="#fff" opacity=".35" rx="1"/>
  <path d="M19 17.5h6a1 1 0 0 1 1 1v2a1 1 0 0 1-1 1h-6v-4z" fill="#fff" opacity=".35" rx="1"/>
  <!-- Kanban columns with cards -->
  <rect x="7" y="10" width="4" height="12" rx="1" fill="#fff"/>
  <rect x="8" y="11.5" width="2" height="2" rx=".5" fill="#6366f1" opacity=".5"/>
  <rect x="8" y="14.5" width="2" height="2" rx=".5" fill="#6366f1" opacity=".3"/>
  <rect x="8" y="17.5" width="2" height="2" rx=".5" fill="#6366f1" opacity=".2"/>
  <rect x="13" y="10" width="4" height="9" rx="1" fill="#fff"/>
  <rect x="14" y="11.5" width="2" height="2" rx=".5" fill="#f59e0b" opacity=".6"/>
  <rect x="14" y="14.5" width="2" height="2" rx=".5" fill="#f59e0b" opacity=".3"/>
  <rect x="21" y="10" width="4" height="6" rx="1" fill="#fff"/>
  <rect x="22" y="11.5" width="2" height="2" rx=".5" fill="#22c55e" opacity=".6"/>
</svg>
